<svg width="148" height="30" viewBox="0 0 148 30" fill="none" xmlns="http://www.w3.org/2000/svg">
<path d="M15.25 2.5V27.5M24.0888 6.16116L6.41116 23.8388M27.75 15H2.75M24.0888 23.8388L6.41116 6.16116" stroke="#026CD5" stroke-width="2.67857" stroke-linecap="round" stroke-linejoin="round"/>
<path d="M41.561 24L35.5991 6.00684H39.8423L43.1724 17.3667L46.9321 6.00684H49.4297L53.1626 17.3667L56.5732 6.00684H60.8164L54.7202 24H52.1421L48.1675 12.4253L44.1392 24H41.561ZM67.2628 24.4028C66.1886 24.4028 65.186 24.1253 64.255 23.5703C63.3419 23.0153 62.5989 22.2096 62.026 21.1533C61.471 20.097 61.1935 18.8169 61.1935 17.313C61.1935 15.7912 61.471 14.4932 62.026 13.4189C62.5989 12.3447 63.3598 11.5212 64.3087 10.9482C65.2755 10.3753 66.3408 10.0889 67.5045 10.0889C68.2564 10.0889 68.9994 10.259 69.7335 10.5991C70.4854 10.9393 71.1121 11.3958 71.6134 11.9688V10.438H75.024V24H71.6134V21.7173C71.2195 22.4513 70.6466 23.0869 69.8946 23.624C69.1427 24.1432 68.2654 24.4028 67.2628 24.4028ZM68.1222 20.9922C68.7309 20.9922 69.2949 20.8311 69.8141 20.5088C70.3512 20.1865 70.7898 19.73 71.13 19.1392C71.4701 18.5483 71.6313 17.8501 71.6134 17.0444V15.1108C71.13 14.5916 70.6018 14.1799 70.0289 13.8755C69.4739 13.5711 68.8652 13.4189 68.2027 13.4189C67.4866 13.4189 66.8689 13.6069 66.3497 13.9829C65.8484 14.341 65.4545 14.8154 65.1681 15.4062C64.8816 15.9971 64.7384 16.6326 64.7384 17.313C64.7384 17.9754 64.8816 18.5931 65.1681 19.166C65.4545 19.721 65.8484 20.1686 66.3497 20.5088C66.8689 20.8311 67.4597 20.9922 68.1222 20.9922ZM78.1135 24V4.66406H81.5241V24H78.1135ZM84.909 24V6.00684H92.3479C93.1894 6.00684 94.013 6.15902 94.8187 6.46338C95.6243 6.76774 96.3494 7.21533 96.9939 7.80615C97.6564 8.37907 98.1756 9.08626 98.5516 9.92773C98.9454 10.7513 99.1424 11.7002 99.1424 12.7744C99.1424 14.0814 98.8291 15.2272 98.2024 16.2119C97.5937 17.1787 96.7791 17.9396 95.7586 18.4946C94.7381 19.0317 93.6281 19.3003 92.4285 19.3003C91.4617 19.3003 90.6202 19.2108 89.9041 19.0317C89.188 18.8527 88.615 18.6289 88.1854 18.3604V15.2988C88.5792 15.4958 89.0984 15.6838 89.743 15.8628C90.4054 16.0239 91.0947 16.1045 91.8108 16.1045C92.8851 16.1045 93.7355 15.8091 94.3621 15.2183C95.0066 14.6095 95.3289 13.7949 95.3289 12.7744C95.3289 12.0404 95.1588 11.4406 94.8187 10.9751C94.4964 10.4917 94.0577 10.1247 93.5027 9.87402C92.9656 9.62337 92.3748 9.49805 91.7303 9.49805H88.6419V24H84.909ZM107.066 24.3223C105.884 24.3223 104.828 24.0895 103.897 23.624C102.984 23.1585 102.259 22.4961 101.722 21.6367C101.202 20.7594 100.943 19.721 100.943 18.5215V10.438H104.407V17.9038C104.407 18.9422 104.649 19.73 105.132 20.2671C105.634 20.7863 106.278 21.0459 107.066 21.0459C107.854 21.0459 108.489 20.7863 108.973 20.2671C109.474 19.73 109.725 18.9422 109.725 17.9038V10.438H113.189V18.5215C113.189 19.721 112.92 20.7594 112.383 21.6367C111.846 22.4961 111.112 23.1585 110.181 23.624C109.268 24.0895 108.23 24.3223 107.066 24.3223ZM115.983 24V4.66406H119.394V24H115.983ZM126.162 24.4028C125.553 24.4028 124.954 24.3312 124.363 24.188C123.772 24.0627 123.226 23.8926 122.725 23.6777C122.241 23.4629 121.847 23.248 121.543 23.0332V20.0522C121.883 20.285 122.295 20.5088 122.778 20.7236C123.262 20.9385 123.763 21.1175 124.282 21.2607C124.802 21.3861 125.276 21.4487 125.706 21.4487C126.386 21.4487 126.905 21.3234 127.263 21.0728C127.639 20.8221 127.827 20.4819 127.827 20.0522C127.827 19.7121 127.675 19.4435 127.371 19.2466C127.066 19.0496 126.619 18.8527 126.028 18.6558L124.363 18.0649C123.342 17.7248 122.626 17.2414 122.214 16.6147C121.821 15.9881 121.624 15.2451 121.624 14.3857C121.624 13.5264 121.838 12.7834 122.268 12.1567C122.716 11.5122 123.333 11.0109 124.121 10.6528C124.927 10.2769 125.831 10.0889 126.834 10.0889C127.675 10.0889 128.454 10.2142 129.17 10.4648C129.904 10.6976 130.459 10.984 130.835 11.3242V14.332C130.423 14.0456 129.904 13.7681 129.277 13.4995C128.669 13.231 128.024 13.0967 127.344 13.0967C126.699 13.0967 126.189 13.2399 125.813 13.5264C125.437 13.8128 125.249 14.153 125.249 14.5469C125.249 14.8333 125.357 15.1019 125.571 15.3525C125.804 15.5853 126.216 15.7912 126.807 15.9702L128.338 16.4805C129.394 16.7848 130.173 17.2414 130.674 17.8501C131.175 18.4409 131.426 19.175 131.426 20.0522C131.426 20.8758 131.184 21.6188 130.701 22.2812C130.235 22.9437 129.6 23.4629 128.794 23.8389C128.006 24.2148 127.129 24.4028 126.162 24.4028ZM139.564 24.4028C138.562 24.4028 137.622 24.2327 136.744 23.8926C135.867 23.5345 135.088 23.0422 134.408 22.4155C133.745 21.7889 133.226 21.0459 132.85 20.1865C132.474 19.3271 132.286 18.3872 132.286 17.3667C132.286 16.0418 132.582 14.8333 133.173 13.7412C133.763 12.6312 134.578 11.745 135.616 11.0825C136.655 10.4201 137.836 10.0889 139.161 10.0889C140.486 10.0889 141.623 10.3753 142.572 10.9482C143.539 11.5212 144.273 12.3179 144.774 13.3384C145.293 14.341 145.553 15.5047 145.553 16.8296V18.2798H135.428V15.9434H142.277C142.241 15.2809 142.062 14.7438 141.739 14.332C141.417 13.9023 141.023 13.589 140.558 13.3921C140.092 13.1772 139.6 13.0698 139.081 13.0698C138.383 13.0698 137.774 13.2489 137.255 13.6069C136.753 13.965 136.359 14.4663 136.073 15.1108C135.786 15.7554 135.643 16.5073 135.643 17.3667C135.643 18.1366 135.813 18.8169 136.154 19.4077C136.494 19.9985 136.968 20.464 137.577 20.8042C138.203 21.1444 138.911 21.3145 139.698 21.3145C140.701 21.3145 141.596 21.1175 142.384 20.7236C143.19 20.3298 143.825 19.9269 144.291 19.5151V22.6841C144.022 22.9347 143.646 23.1943 143.163 23.4629C142.679 23.7314 142.124 23.9552 141.498 24.1343C140.889 24.3133 140.245 24.4028 139.564 24.4028Z" fill="#026CD5"/>
</svg>
